<svg xmlns="http://www.w3.org/2000/svg" width="15.242" height="9.824" viewBox="0 0 15.242 9.824">
  <g id="mail" transform="translate(0 -91)">
    <g id="Group_2" data-name="Group 2" transform="translate(0 91.623)">
      <g id="Group_1" data-name="Group 1" transform="translate(0 0)">
        <path id="Path_3" data-name="Path 3" d="M15.03,111.933l-7.142,5.539a.446.446,0,0,1-.535,0L.212,111.933a1.328,1.328,0,0,0-.212.716v7.145a1.341,1.341,0,0,0,1.34,1.34H13.9a1.341,1.341,0,0,0,1.34-1.34v-7.145A1.328,1.328,0,0,0,15.03,111.933Z" transform="translate(0 -111.933)" fill="#555"/>
      </g>
    </g>
    <g id="Group_4" data-name="Group 4" transform="translate(0.947 91)">
      <g id="Group_3" data-name="Group 3" transform="translate(0 0)">
        <path id="Path_4" data-name="Path 4" d="M44.771,91H32.208a1.321,1.321,0,0,0-.392.065l6.674,5.181,6.674-5.181A1.321,1.321,0,0,0,44.771,91Z" transform="translate(-31.816 -91)" fill="#555"/>
      </g>
    </g>
  </g>
</svg>
